<svg xmlns="http://www.w3.org/2000/svg" xmlns:xlink="http://www.w3.org/1999/xlink" width="400" height="400" viewBox="0 0 400 400">
  <defs>
    <linearGradient id="linear-gradient" x1="0.037" y1="0.045" x2="0.955" y2="0.962" gradientUnits="objectBoundingBox">
      <stop offset="0" stop-color="#114bce"/>
      <stop offset="1" stop-color="#00d6e8"/>
    </linearGradient>
  </defs>
  <g id="Group_184" data-name="Group 184" transform="translate(-2213.907 2718.067)">
    <path id="Path_238" data-name="Path 238" d="M43.636,0H356.364A43.636,43.636,0,0,1,400,43.636V356.364A43.636,43.636,0,0,1,356.364,400H43.636A43.636,43.636,0,0,1,0,356.364V43.636A43.636,43.636,0,0,1,43.636,0Z" transform="translate(2213.907 -2718.067)" fill="url(#linear-gradient)"/>
    <path id="Path_237" data-name="Path 237" d="M322.094,32.082a7.273,7.273,0,0,0-6.473-4.109h-91.2a7.273,7.273,0,0,0-5.455,2.509l-61.6,72.727V35.173a7.273,7.273,0,0,0-7.273-7.273H70.6a7.273,7.273,0,0,0-7.273,7.273V321.682a7.273,7.273,0,0,0,7.273,7.273h79.564a7.273,7.273,0,0,0,7.273-7.273V254.009l57.6,72.436a7.273,7.273,0,0,0,5.491,2.545h91.2a7.273,7.273,0,0,0,5.636-11.673l-108.145-139.2,111.964-138.4a7.273,7.273,0,0,0,.909-7.636ZM160.312,243.791a7.273,7.273,0,0,0-3.964-2.4l-17.855-59.745h61.527a1.6,1.6,0,0,0,.291.4l11.455,85.127h-.291v.8Zm132.8,75.818H224.021L220.385,280.7ZM220.275,271.9l-10.4-77.455,95.527,122.8ZM72.094,206.445,96.53,111.9l31.527,64.364L72.094,206.955Zm76.691-83.636L132.639,167.9l-29.6-60.691Zm8.836-1.418,50.545-22.182-7.855,74.509H138.785Zm58.836-25.855v-.327a4.654,4.654,0,0,0,.873-.4l88.436-50.945-96.582,119.2ZM218.6,85.027l10.909-47.745h72.182ZM209.621,89.1a9.022,9.022,0,0,0,0,.982h-.364L162.93,110.445l57.164-67.636ZM147.8,114.191,102.13,98.627l45.636-51.855ZM96.566,93.464,72.6,37.136h73.164Zm-5.345,7.527L72.057,175.173V55.936ZM72.057,224.627l42.691,49.636L72.094,313.827Zm47.273,56.182,25.455,39.127H77.294Zm6.036-5.273,22.4-18.182V309.9Zm-4.291-6.618v-.255l-.436.4L74.53,215.209a.646.646,0,0,1,.327-.8L130.93,183.5l18.182,60.691a7.272,7.272,0,0,0-1.2,2.873Zm91.309,8.109,3.382,36.364-44.255-55.709Z" transform="translate(2219.668 -2695.058)" fill="#fff"/>
  </g>
</svg>
